<svg width="512" height="512" version="1.1" xmlns="http://www.w3.org/2000/svg" desc="Created with imagetracer.js version 1.2.6" ><path fill="rgb(223,55,44)" stroke="rgb(223,55,44)" stroke-width="1" opacity="0.996078431372549" d="M 158.5 108 L 349.5 108 Q 362.1 110.9 368 120.5 L 372 130.5 L 372 480.5 Q 369.6 493.1 360.5 499 L 348.5 504 L 159.5 504 Q 146.9 501.6 141 492.5 L 136 480.5 L 136 130.5 Q 138.9 117.9 148.5 112 L 158.5 108 Z M 166 116 Q 163 117 164 123 L 166 124 L 347 124 L 352 125 L 355 130 Q 354 135 356 137 L 356 175 L 358 176 Q 363 177 364 175 L 364 131 L 361 123 Q 358 118 352 116 L 166 116 Z M 177 132 L 164 137 Q 154 143 152 157 L 152 352 L 157 365 Q 163 374 177 376 L 288 376 L 301 371 Q 310 365 312 352 L 312 157 L 307 144 Q 301 134 288 132 L 177 132 Z M 327 140 Q 323 141 324 146 L 327 148 L 346 148 Q 349 147 348 143 L 346 140 L 327 140 Z M 327 156 Q 323 157 324 162 L 327 164 L 338 164 Q 341 163 340 159 L 338 156 L 327 156 Z M 330 184 L 327 185 Q 321 187 320 194 L 320 219 L 321 222 Q 323 227 330 228 L 355 228 L 358 227 Q 363 225 364 219 L 364 194 L 363 191 Q 361 185 355 184 L 330 184 Z M 330 236 L 327 237 Q 321 239 320 246 L 320 299 L 321 302 Q 323 307 330 308 L 355 308 L 358 307 Q 363 305 364 299 L 364 246 L 363 243 Q 361 237 355 236 L 330 236 Z M 339 320 L 336 323 L 336 358 Q 337 361 342 360 L 344 358 L 344 323 Q 343 319 339 320 Z M 169 396 L 160 400 Q 154 404 152 413 L 152 432 L 156 441 Q 160 446 169 448 L 296 448 L 305 444 Q 310 440 312 432 L 312 413 L 308 404 Q 304 398 296 396 L 169 396 Z M 330 404 L 327 405 Q 321 407 320 414 L 320 431 L 321 434 Q 323 439 330 440 L 355 440 L 358 439 Q 363 437 364 431 L 364 414 L 363 411 Q 361 405 355 404 L 330 404 Z M 166 456 Q 163 457 164 463 L 166 464 L 247 464 Q 249 463 248 458 L 247 456 L 166 456 Z M 262 456 Q 259 457 260 463 L 262 464 L 303 464 Q 305 463 304 458 L 303 456 L 262 456 Z " /><path fill="rgb(244,130,129)" stroke="rgb(244,130,129)" stroke-width="1" opacity="1" d="M 182.5 36 L 186 37.5 L 188 47.5 L 190.5 51 L 201.5 53 L 204 55.5 Q 204.5 59.5 201.5 60 L 191.5 61 L 188 63.5 L 187 72.5 L 183.5 78 L 180 75.5 L 179 67.5 L 175.5 62 L 167.5 61 L 162 57.5 L 165.5 53 L 177 51 Q 179.6 47.8 179 40.5 L 182.5 36 Z " /><path fill="rgb(244,130,129)" stroke="rgb(244,130,129)" stroke-width="1" opacity="1" d="M 293.5 36 L 302.5 36 Q 309.3 38.3 313 43.5 Q 317.1 47.9 316 57.5 Q 314.2 65.2 308.5 69 Q 303.7 73.2 293.5 72 Q 286.8 69.8 283 64.5 Q 278.5 60 280 49.5 Q 282.3 42.8 287.5 39 L 293.5 36 Z M 295 45 L 293 46 L 289 51 L 290 60 L 295 63 L 304 62 L 307 58 L 306 49 Q 304 43 295 45 Z " /><path fill="rgb(244,130,129)" stroke="rgb(244,130,129)" stroke-width="1" opacity="1" d="M 165.5 116 L 351.5 116 Q 358 117.5 361 122.5 L 364 130.5 L 364 174.5 Q 362.8 177.3 357.5 176 L 356 174.5 L 356 136.5 Q 353.5 135 355 129.5 L 351.5 125 L 346.5 124 L 165.5 124 L 164 122.5 Q 162.8 117.3 165.5 116 Z " /><path fill="rgb(244,130,129)" stroke="rgb(244,130,129)" stroke-width="1" opacity="1" d="M 177.5 160 L 198.5 160 L 203 163.5 L 204 165.5 L 204 190.5 L 200.5 195 L 198.5 196 L 177.5 196 L 173 192.5 L 172 190.5 L 172 165.5 L 175.5 161 L 177.5 160 Z " /><path fill="rgb(244,130,129)" stroke="rgb(244,130,129)" stroke-width="1" opacity="1" d="M 221.5 160 L 242.5 160 L 247 163.5 L 248 165.5 L 248 190.5 L 244.5 195 L 242.5 196 L 221.5 196 L 217 192.5 L 216 190.5 L 216 165.5 L 219.5 161 L 221.5 160 Z " /><path fill="rgb(244,130,129)" stroke="rgb(244,130,129)" stroke-width="1" opacity="1" d="M 265.5 160 L 286.5 160 L 291 163.5 L 292 165.5 L 292 190.5 L 288.5 195 L 286.5 196 L 265.5 196 L 261 192.5 L 260 190.5 L 260 165.5 L 263.5 161 L 265.5 160 Z " /><path fill="rgb(244,130,129)" stroke="rgb(244,130,129)" stroke-width="1" opacity="1" d="M 436.5 176 Q 449.9 175.1 454 183.5 Q 457 187.5 456 195.5 Q 454.2 202.7 448.5 206 Q 444.5 209 436.5 208 Q 429.3 206.2 426 200.5 Q 423 196.5 424 188.5 Q 425.8 181.3 431.5 178 L 436.5 176 Z M 437 184 Q 430 186 432 196 Q 434 201 444 200 Q 449 198 448 189 Q 446 182 437 184 Z " /><path fill="rgb(244,130,129)" stroke="rgb(244,130,129)" stroke-width="1" opacity="1" d="M 330.5 192 L 353.5 192 L 356 194.5 L 356 217.5 L 353.5 220 L 330.5 220 L 328 217.5 L 328 194.5 L 330.5 192 Z M 335 204 Q 331 205 332 210 L 335 212 L 350 212 Q 353 211 352 207 L 350 204 L 335 204 Z " /><path fill="rgb(244,130,129)" stroke="rgb(244,130,129)" stroke-width="1" opacity="1" d="M 177.5 200 L 198.5 200 L 204 204.5 Q 204.8 210.3 200.5 211 L 198.5 212 L 177.5 212 L 172 207.5 Q 171.3 201.8 175.5 201 L 177.5 200 Z " /><path fill="rgb(244,130,129)" stroke="rgb(244,130,129)" stroke-width="1" opacity="1" d="M 221.5 200 L 242.5 200 L 248 204.5 Q 248.8 210.3 244.5 211 L 242.5 212 L 221.5 212 L 216 207.5 Q 215.3 201.8 219.5 201 L 221.5 200 Z " /><path fill="rgb(244,130,129)" stroke="rgb(244,130,129)" stroke-width="1" opacity="1" d="M 265.5 200 L 286.5 200 L 292 204.5 Q 292.8 210.3 288.5 211 L 286.5 212 L 265.5 212 L 260 207.5 Q 259.3 201.8 263.5 201 L 265.5 200 Z " /><path fill="rgb(244,130,129)" stroke="rgb(244,130,129)" stroke-width="1" opacity="1" d="M 65.5 224 Q 80.9 221.6 85 230.5 L 88 236.5 L 88 244.5 L 82.5 254 Q 77.8 259.3 66.5 258 Q 59.8 255.8 56 250.5 Q 52.2 245.8 54 235.5 L 61.5 226 L 65.5 224 Z M 69 232 L 62 238 L 63 247 Q 65 252 75 250 L 80 244 L 79 237 Q 77 231 69 232 Z " /><path fill="rgb(244,130,129)" stroke="rgb(244,130,129)" stroke-width="1" opacity="1" d="M 177.5 232 L 198.5 232 L 203 235.5 L 204 237.5 L 204 262.5 L 200.5 267 L 198.5 268 L 177.5 268 L 173 264.5 L 172 262.5 L 172 237.5 L 175.5 233 L 177.5 232 Z " /><path fill="rgb(244,130,129)" stroke="rgb(244,130,129)" stroke-width="1" opacity="1" d="M 221.5 232 L 242.5 232 L 247 235.5 L 248 237.5 L 248 262.5 L 244.5 267 L 242.5 268 L 221.5 268 L 217 264.5 L 216 262.5 L 216 237.5 L 219.5 233 L 221.5 232 Z " /><path fill="rgb(244,130,129)" stroke="rgb(244,130,129)" stroke-width="1" opacity="1" d="M 265.5 232 L 286.5 232 L 291 235.5 L 292 237.5 L 292 262.5 L 288.5 267 L 286.5 268 L 265.5 268 L 261 264.5 L 260 262.5 L 260 237.5 L 263.5 233 L 265.5 232 Z " /><path fill="rgb(244,130,129)" stroke="rgb(244,130,129)" stroke-width="1" opacity="1" d="M 330.5 244 L 353.5 244 L 356 246.5 L 356 297.5 L 353.5 300 L 344 300 L 344 292 Q 350.3 293.5 352 289.5 Q 352.8 284.8 349.5 284 L 344 284 L 344 276 Q 350.3 277.5 352 273.5 Q 352.8 268.8 349.5 268 Q 341.3 270.8 344 262.5 L 342.5 260 Q 350.3 261.7 352 257.5 Q 352.8 252.8 349.5 252 L 328.5 252 Q 327.4 251.9 328 246.5 L 330.5 244 Z " /><path fill="rgb(244,130,129)" stroke="rgb(244,130,129)" stroke-width="1" opacity="1" d="M 328 260 L 338 260.5 Q 334.5 262.2 336 268 L 328 268 L 328 260 Z " /><path fill="rgb(244,130,129)" stroke="rgb(244,130,129)" stroke-width="1" opacity="1" d="M 177.5 272 L 198.5 272 L 204 276.5 Q 204.8 282.3 200.5 283 L 198.5 284 L 177.5 284 L 172 279.5 Q 171.3 273.8 175.5 273 L 177.5 272 Z " /><path fill="rgb(244,130,129)" stroke="rgb(244,130,129)" stroke-width="1" opacity="1" d="M 221.5 272 L 242.5 272 L 248 276.5 Q 248.8 282.3 244.5 283 L 242.5 284 L 221.5 284 L 216 279.5 Q 215.3 273.8 219.5 273 L 221.5 272 Z " /><path fill="rgb(244,130,129)" stroke="rgb(244,130,129)" stroke-width="1" opacity="1" d="M 265.5 272 L 286.5 272 L 292 276.5 Q 292.8 282.3 288.5 283 L 286.5 284 L 265.5 284 L 260 279.5 Q 259.3 273.8 263.5 273 L 265.5 272 Z " /><path fill="rgb(244,130,129)" stroke="rgb(244,130,129)" stroke-width="1" opacity="1" d="M 447.5 272 Q 451.5 271.5 452 274.5 L 453 283.5 L 455.5 287 L 463.5 288 L 469 291.5 Q 469.5 295.5 466.5 296 L 454 298 L 451 313 L 448.5 314 L 446 313 Q 443.4 309.8 444 302.5 L 440.5 298 L 432.5 297 L 428 294.5 Q 427.3 289.8 430.5 289 L 440.5 288 L 443 285.5 L 444 277.5 L 447.5 272 Z " /><path fill="rgb(244,130,129)" stroke="rgb(244,130,129)" stroke-width="1" opacity="1" d="M 328 276 L 336 276 L 336 284 L 328 284 L 328 276 Z " /><path fill="rgb(244,130,129)" stroke="rgb(244,130,129)" stroke-width="1" opacity="1" d="M 328 292 L 336 292 L 336 300 Q 329.7 301.5 328 297.5 L 328 292 Z " /><path fill="rgb(244,130,129)" stroke="rgb(244,130,129)" stroke-width="1" opacity="1" d="M 177.5 304 L 198.5 304 L 203 307.5 L 204 309.5 L 204 334.5 L 200.5 339 L 198.5 340 L 177.5 340 L 173 336.5 L 172 334.5 L 172 309.5 L 175.5 305 L 177.5 304 Z " /><path fill="rgb(244,130,129)" stroke="rgb(244,130,129)" stroke-width="1" opacity="1" d="M 221.5 304 L 242.5 304 L 247 307.5 L 248 309.5 L 248 334.5 L 244.5 339 L 242.5 340 L 221.5 340 L 217 336.5 L 216 334.5 L 216 309.5 L 219.5 305 L 221.5 304 Z " /><path fill="rgb(244,130,129)" stroke="rgb(244,130,129)" stroke-width="1" opacity="1" d="M 265.5 304 L 286.5 304 L 291 307.5 L 292 309.5 L 292 334.5 L 288.5 339 L 286.5 340 L 265.5 340 L 261 336.5 L 260 334.5 L 260 309.5 L 263.5 305 L 265.5 304 Z " /><path fill="rgb(244,130,129)" stroke="rgb(244,130,129)" stroke-width="1" opacity="1" d="M 81.5 323 Q 85.3 322.3 86 324.5 L 88 335.5 L 90.5 338 L 101.5 340 L 104 342.5 L 102.5 346 Q 99.3 348.3 92.5 347 L 89 349.5 L 87 356.5 L 87 361.5 L 84.5 364 Q 80.5 364.5 80 361.5 L 79 352.5 L 76.5 349 L 68.5 348 L 63 344.5 Q 62.5 340.5 65.5 340 L 74.5 339 L 78 335.5 L 79 327.5 L 81.5 323 Z " /><path fill="rgb(244,130,129)" stroke="rgb(244,130,129)" stroke-width="1" opacity="1" d="M 177.5 344 L 198.5 344 L 204 348.5 Q 204.8 354.3 200.5 355 L 198.5 356 L 177.5 356 L 172 351.5 Q 171.3 345.8 175.5 345 L 177.5 344 Z " /><path fill="rgb(244,130,129)" stroke="rgb(244,130,129)" stroke-width="1" opacity="1" d="M 221.5 344 L 242.5 344 L 248 348.5 Q 248.8 354.3 244.5 355 L 242.5 356 L 221.5 356 L 216 351.5 Q 215.3 345.8 219.5 345 L 221.5 344 Z " /><path fill="rgb(244,130,129)" stroke="rgb(244,130,129)" stroke-width="1" opacity="1" d="M 265.5 344 L 286.5 344 L 292 348.5 Q 292.8 354.3 288.5 355 L 286.5 356 L 265.5 356 L 260 351.5 Q 259.3 345.8 263.5 345 L 265.5 344 Z " /><path fill="rgb(244,130,129)" stroke="rgb(244,130,129)" stroke-width="1" opacity="1" d="M 165.5 456 L 246.5 456 L 248 457.5 Q 249.3 462.8 246.5 464 L 165.5 464 L 164 462.5 Q 162.8 457.3 165.5 456 Z " /><path fill="rgb(244,130,129)" stroke="rgb(244,130,129)" stroke-width="1" opacity="1" d="M 261.5 456 L 302.5 456 L 304 457.5 Q 305.3 462.8 302.5 464 L 261.5 464 L 260 462.5 Q 258.8 457.3 261.5 456 Z " /><path fill="rgb(0,0,0)" stroke="rgb(0,0,0)" stroke-width="1" opacity="0" d="M 0 0 L 233 0.5 L 205.5 4 L 181.5 10 Q 155.5 18 133.5 30 Q 92 53 62 87.5 Q 35.8 117.3 19 156.5 Q 10.4 176.9 5 200.5 L 1 223.5 L 0.5 233 L 0 0 Z " /><path fill="rgb(0,0,0)" stroke="rgb(0,0,0)" stroke-width="1" opacity="0" d="M 279.5 0 L 512 0 L 512 232.5 L 511 232.5 L 509 210.5 L 502 181.5 Q 494 155.5 482 133.5 Q 459 92 424.5 62 Q 397.3 38.2 362.5 22 L 323.5 8 L 295.5 2 L 279.5 1 L 279.5 0 Z " /><path fill="rgb(0,0,0)" stroke="rgb(0,0,0)" stroke-width="1" opacity="0" d="M 0.5 279 L 3 301.5 L 10 330.5 Q 18 356.5 30 378.5 Q 53 420 87.5 450 Q 105.8 466.4 128 478 Q 128.8 495.3 140 503.5 L 101.5 504 L 100 505.5 Q 98.8 510.3 101 511.5 L 0 512 L 0.5 279 Z " /><path fill="rgb(0,0,0)" stroke="rgb(0,0,0)" stroke-width="1" opacity="0" d="M 511.5 279 L 512 512 L 407 511.5 Q 409.3 510.3 408 505.5 L 406.5 504 L 368 503.5 Q 378.1 495.4 380 480 Q 421 458.8 450 424.5 Q 476.2 394.7 493 355.5 Q 501.6 335.1 507 311.5 L 511.5 279 Z " /><path fill="rgb(250,207,0)" stroke="rgb(250,207,0)" stroke-width="1" opacity="0.9921568627450981" d="M 233.5 0 L 254 0.5 L 233.5 1 L 232.5 2 L 224.5 2 L 201.5 6 L 185.5 10 L 152.5 22 Q 104.1 44.1 70 80.5 Q 36.6 115.6 17 164.5 Q 8.6 186.1 4 211.5 L 2 232.5 L 1 233.5 L 0.5 255 L 0 233.5 L 1 232.5 L 1 223.5 L 2 222.5 L 3 210.5 L 10 181.5 Q 18 155.5 30 133.5 Q 53 92 87.5 62 Q 117.3 35.8 156.5 19 Q 176.9 10.4 200.5 5 Q 210 5 216.5 2 L 223.5 2 L 224.5 1 L 232.5 1 L 233.5 0 Z " /><path fill="rgb(250,207,0)" stroke="rgb(250,207,0)" stroke-width="1" opacity="0.9921568627450981" d="M 258.5 0 L 278.5 0 L 279.5 1 L 287.5 1 L 288.5 2 L 295.5 2 L 311.5 5 Q 339.2 11.3 362.5 22 Q 414.6 46.4 450 87.5 Q 484.5 126 502 181.5 L 509 210.5 L 511 232.5 L 512 233.5 L 512 278.5 L 511 279.5 L 509 301.5 L 502 330.5 Q 494 356.5 482 378.5 Q 459 420 424.5 450 Q 404.9 467.4 380.5 480 L 381.5 478 Q 415.1 460.1 440 433.5 Q 474.9 397.9 495 347.5 L 502 326.5 L 510 287.5 L 510 278.5 L 511 277.5 L 511 234.5 L 510 233.5 L 510 224.5 L 509 223.5 L 508 211.5 L 502 185.5 L 490 152.5 Q 468.6 105.4 433.5 72 Q 399.6 38.9 352.5 19 Q 333.1 10.9 310.5 6 L 287.5 2 L 279.5 2 L 278.5 1 L 258.5 1 L 258.5 0 Z " /><path fill="rgb(250,207,0)" stroke="rgb(250,207,0)" stroke-width="1" opacity="0.9921568627450981" d="M 155.5 100 L 158 100.5 L 155.5 101 L 155.5 100 Z " /><path fill="rgb(250,207,0)" stroke="rgb(250,207,0)" stroke-width="1" opacity="0.9921568627450981" d="M 350.5 100 L 353 100.5 L 350.5 101 L 350.5 100 Z " /><path fill="rgb(250,207,0)" stroke="rgb(250,207,0)" stroke-width="1" opacity="0.9921568627450981" d="M 149.5 102 L 151 102.5 L 147.5 104 L 147.5 103 L 149.5 102 Z " /><path fill="rgb(250,207,0)" stroke="rgb(250,207,0)" stroke-width="1" opacity="0.9921568627450981" d="M 145.5 104 L 144.5 106 L 145.5 104 Z " /><path fill="rgb(250,207,0)" stroke="rgb(250,207,0)" stroke-width="1" opacity="0.9921568627450981" d="M 362.5 104 L 363.5 106 L 362.5 104 Z " /><path fill="rgb(250,207,0)" stroke="rgb(250,207,0)" stroke-width="1" opacity="0.9921568627450981" d="M 142.5 106 L 134.5 115 L 142.5 106 Z " /><path fill="rgb(250,207,0)" stroke="rgb(250,207,0)" stroke-width="1" opacity="0.9921568627450981" d="M 365.5 106 L 373.5 115 L 365.5 106 Z " /><path fill="rgb(250,207,0)" stroke="rgb(250,207,0)" stroke-width="1" opacity="0.9921568627450981" d="M 133.5 116 L 132.5 118 L 133.5 116 Z " /><path fill="rgb(250,207,0)" stroke="rgb(250,207,0)" stroke-width="1" opacity="0.9921568627450981" d="M 374.5 116 L 375.5 118 L 374.5 116 Z " /><path fill="rgb(250,207,0)" stroke="rgb(250,207,0)" stroke-width="1" opacity="0.9921568627450981" d="M 128.5 127 L 129 129.5 L 128 129.5 L 128.5 127 Z " /><path fill="rgb(250,207,0)" stroke="rgb(250,207,0)" stroke-width="1" opacity="0.9921568627450981" d="M 379.5 127 L 380 129.5 L 379 129.5 L 379.5 127 Z " /><path fill="rgb(250,207,0)" stroke="rgb(250,207,0)" stroke-width="1" opacity="0.9921568627450981" d="M 0.5 257 L 1 277.5 L 2 278.5 L 2 287.5 L 3 288.5 L 4 300.5 Q 9.2 328.8 19 352.5 Q 40.5 403.5 77.5 439 Q 100 461 128 477.5 L 126.5 478 Q 89.5 456 62 424.5 Q 32.5 391 15 345.5 Q 7.4 325.1 3 301.5 L 1 279.5 L 0 278.5 L 0.5 257 Z " /><path fill="rgb(251,208,0)" stroke="rgb(251,208,0)" stroke-width="1" opacity="1" d="M 254.5 0 L 258.5 1 L 278.5 1 L 279.5 2 L 300.5 4 Q 328.8 9.2 352.5 19 Q 404.2 40.8 440 78.5 Q 474.9 114.1 495 164.5 L 502 185.5 L 510 224.5 L 510 233.5 L 511 234.5 L 511 277.5 L 510 278.5 L 510 287.5 L 509 288.5 L 508 300.5 L 502 326.5 L 490 359.5 Q 468.6 406.6 433.5 440 Q 410.3 462.8 380.5 479 L 380 127.5 Q 376.1 113.4 365.5 106 L 352.5 100 L 155.5 100 Q 141.4 103.9 134 114.5 L 128 127.5 L 127.5 477 Q 96.9 459.1 73 434.5 Q 39.2 400.3 19 352.5 Q 9.2 328.8 4 300.5 L 3 288.5 L 2 287.5 L 2 278.5 L 1 277.5 L 1 257.5 L 0 255.5 L 1 254.5 L 1 233.5 L 2 232.5 L 2 224.5 L 6 201.5 L 10 185.5 L 22 152.5 Q 44.1 104.1 80.5 70 Q 113.8 38.3 159.5 19 Q 178.9 10.9 201.5 6 L 224.5 2 L 253.5 1 L 254.5 0 Z M 183 36 L 179 41 Q 180 48 177 51 L 166 53 L 162 58 L 168 61 L 176 62 L 179 68 L 180 76 L 184 78 L 187 73 L 188 64 L 192 61 L 202 60 Q 205 59 204 56 L 202 53 L 191 51 L 188 48 L 186 38 L 183 36 Z M 294 36 L 288 39 Q 282 43 280 50 Q 279 60 283 65 Q 287 70 294 72 Q 304 73 309 69 Q 314 65 316 58 Q 317 48 313 44 Q 309 38 303 36 L 294 36 Z M 437 176 L 432 178 Q 426 181 424 189 Q 423 197 426 201 Q 429 206 437 208 Q 445 209 449 206 Q 454 203 456 196 Q 457 188 454 184 Q 450 175 437 176 Z M 66 224 L 62 226 L 54 236 Q 52 246 56 251 Q 60 256 67 258 Q 78 259 83 254 L 88 245 L 88 237 L 85 231 Q 81 222 66 224 Z M 448 272 L 444 278 L 443 286 L 441 288 L 431 289 Q 427 290 428 295 L 433 297 L 441 298 L 444 303 Q 443 310 446 313 L 449 314 L 451 313 L 454 298 L 467 296 Q 470 296 469 292 L 464 288 L 456 287 L 453 284 L 452 275 Q 451 272 448 272 Z M 82 323 L 79 328 L 78 336 L 75 339 L 66 340 Q 62 341 63 345 L 69 348 L 77 349 L 79 353 L 80 362 Q 80 365 85 364 L 87 362 L 87 357 L 89 350 L 93 347 Q 99 348 103 346 L 104 343 L 102 340 L 91 338 L 88 336 L 86 325 Q 85 322 82 323 Z " /><path fill="rgb(251,208,0)" stroke="rgb(251,208,0)" stroke-width="1" opacity="1" d="M 294.5 45 Q 303.5 43.5 306 48.5 L 307 57.5 L 303.5 62 L 294.5 63 L 290 59.5 L 289 50.5 L 292.5 46 L 294.5 45 Z " /><path fill="rgb(251,208,0)" stroke="rgb(251,208,0)" stroke-width="1" opacity="1" d="M 436.5 184 Q 446.3 182.3 448 188.5 Q 449.4 197.8 443.5 200 Q 434.1 201.3 432 195.5 Q 430.3 185.8 436.5 184 Z " /><path fill="rgb(251,208,0)" stroke="rgb(251,208,0)" stroke-width="1" opacity="1" d="M 68.5 232 Q 76.6 231.4 79 236.5 L 80 243.5 L 74.5 250 Q 65.5 251.5 63 246.5 L 62 237.5 L 68.5 232 Z " /><path fill="rgb(47,70,82)" stroke="rgb(47,70,82)" stroke-width="1" opacity="1" d="M 168.5 143 L 167.5 145 L 168.5 143 Z " /><path fill="rgb(47,70,82)" stroke="rgb(47,70,82)" stroke-width="1" opacity="1" d="M 295.5 143 L 296.5 145 L 295.5 143 Z " /><path fill="rgb(47,70,82)" stroke="rgb(47,70,82)" stroke-width="1" opacity="1" d="M 164.5 147 L 163.5 149 L 164.5 147 Z " /><path fill="rgb(47,70,82)" stroke="rgb(47,70,82)" stroke-width="1" opacity="1" d="M 299.5 147 L 300.5 149 L 299.5 147 Z " /><path fill="rgb(47,70,82)" stroke="rgb(47,70,82)" stroke-width="1" opacity="1" d="M 163.5 359 L 164.5 361 L 163.5 359 Z " /><path fill="rgb(47,70,82)" stroke="rgb(47,70,82)" stroke-width="1" opacity="1" d="M 300.5 359 L 299.5 361 L 300.5 359 Z " /><path fill="rgb(47,70,82)" stroke="rgb(47,70,82)" stroke-width="1" opacity="1" d="M 167.5 363 L 168.5 365 L 167.5 363 Z " /><path fill="rgb(47,70,82)" stroke="rgb(47,70,82)" stroke-width="1" opacity="1" d="M 296.5 363 L 295.5 365 L 296.5 363 Z " /><path fill="rgb(47,70,82)" stroke="rgb(47,70,82)" stroke-width="1" opacity="1" d="M 164.5 406 L 162.5 409 L 164.5 406 Z " /><path fill="rgb(47,70,82)" stroke="rgb(47,70,82)" stroke-width="1" opacity="1" d="M 299.5 406 L 301.5 409 L 299.5 406 Z " /><path fill="rgb(47,70,82)" stroke="rgb(47,70,82)" stroke-width="1" opacity="1" d="M 160.5 423 L 168.5 428 L 295.5 428 L 303.5 423 L 304 430.5 L 301 437 L 294.5 440 L 169.5 440 L 163 437 L 160 430.5 L 160.5 423 Z " /><path fill="rgb(102,50,16)" stroke="rgb(102,50,16)" stroke-width="1" opacity="0.996078431372549" d="M 128.5 477 Q 129.7 493.8 139.5 502 L 142 503.5 L 140.5 504 Q 128.1 495.6 128.5 477 Z " /><path fill="rgb(102,50,16)" stroke="rgb(102,50,16)" stroke-width="1" opacity="0.996078431372549" d="M 379.5 480 L 380 483.5 Q 376.6 496.6 367.5 504 L 366 503.5 L 370 500.5 Q 377.5 493 379.5 480 Z " /><path fill="rgb(102,50,16)" stroke="rgb(102,50,16)" stroke-width="1" opacity="0.996078431372549" d="M 101.5 504 L 104 504.5 L 101 506.5 Q 100.3 510.3 102.5 511 L 104 511.5 L 101.5 512 Q 98.8 510.8 100 505.5 L 101.5 504 Z " /><path fill="rgb(102,50,16)" stroke="rgb(102,50,16)" stroke-width="1" opacity="0.996078431372549" d="M 404.5 504 L 408 505.5 Q 409.3 510.8 406.5 512 L 404 511.5 L 407 509.5 Q 407.8 505.8 405.5 505 L 404.5 504 Z " /><path fill="rgb(65,94,109)" stroke="rgb(65,94,109)" stroke-width="1" opacity="1" d="M 177.5 140 L 286.5 140 Q 294.3 141.7 299 146.5 L 304 157.5 L 304 350.5 Q 302.3 358.3 297.5 363 L 286.5 368 L 177.5 368 Q 169.7 366.3 165 361.5 L 160 350.5 L 160 157.5 Q 161.7 149.7 166.5 145 L 177.5 140 Z M 178 160 L 176 161 L 172 166 L 172 191 L 173 193 L 178 196 L 199 196 L 201 195 L 204 191 L 204 166 L 203 164 L 199 160 L 178 160 Z M 222 160 L 220 161 L 216 166 L 216 191 L 217 193 L 222 196 L 243 196 L 245 195 L 248 191 L 248 166 L 247 164 L 243 160 L 222 160 Z M 266 160 L 264 161 L 260 166 L 260 191 L 261 193 L 266 196 L 287 196 L 289 195 L 292 191 L 292 166 L 291 164 L 287 160 L 266 160 Z M 178 200 L 176 201 Q 171 202 172 208 L 178 212 L 199 212 L 201 211 Q 205 210 204 205 L 199 200 L 178 200 Z M 222 200 L 220 201 Q 215 202 216 208 L 222 212 L 243 212 L 245 211 Q 249 210 248 205 L 243 200 L 222 200 Z M 266 200 L 264 201 Q 259 202 260 208 L 266 212 L 287 212 L 289 211 Q 293 210 292 205 L 287 200 L 266 200 Z M 178 232 L 176 233 L 172 238 L 172 263 L 173 265 L 178 268 L 199 268 L 201 267 L 204 263 L 204 238 L 203 236 L 199 232 L 178 232 Z M 222 232 L 220 233 L 216 238 L 216 263 L 217 265 L 222 268 L 243 268 L 245 267 L 248 263 L 248 238 L 247 236 L 243 232 L 222 232 Z M 266 232 L 264 233 L 260 238 L 260 263 L 261 265 L 266 268 L 287 268 L 289 267 L 292 263 L 292 238 L 291 236 L 287 232 L 266 232 Z M 178 272 L 176 273 Q 171 274 172 280 L 178 284 L 199 284 L 201 283 Q 205 282 204 277 L 199 272 L 178 272 Z M 222 272 L 220 273 Q 215 274 216 280 L 222 284 L 243 284 L 245 283 Q 249 282 248 277 L 243 272 L 222 272 Z M 266 272 L 264 273 Q 259 274 260 280 L 266 284 L 287 284 L 289 283 Q 293 282 292 277 L 287 272 L 266 272 Z M 178 304 L 176 305 L 172 310 L 172 335 L 173 337 L 178 340 L 199 340 L 201 339 L 204 335 L 204 310 L 203 308 L 199 304 L 178 304 Z M 222 304 L 220 305 L 216 310 L 216 335 L 217 337 L 222 340 L 243 340 L 245 339 L 248 335 L 248 310 L 247 308 L 243 304 L 222 304 Z M 266 304 L 264 305 L 260 310 L 260 335 L 261 337 L 266 340 L 287 340 L 289 339 L 292 335 L 292 310 L 291 308 L 287 304 L 266 304 Z M 178 344 L 176 345 Q 171 346 172 352 L 178 356 L 199 356 L 201 355 Q 205 354 204 349 L 199 344 L 178 344 Z M 222 344 L 220 345 Q 215 346 216 352 L 222 356 L 243 356 L 245 355 Q 249 354 248 349 L 243 344 L 222 344 Z M 266 344 L 264 345 Q 259 346 260 352 L 266 356 L 287 356 L 289 355 Q 293 354 292 349 L 287 344 L 266 344 Z " /><path fill="rgb(65,94,109)" stroke="rgb(65,94,109)" stroke-width="1" opacity="1" d="M 170.5 404 L 293.5 404 Q 299.3 405.3 302 409.5 Q 305.1 413.9 304 422.5 L 295.5 428 L 168.5 428 L 160 422.5 Q 158.4 409.9 165.5 406 L 170.5 404 Z " /><path fill="rgb(65,94,109)" stroke="rgb(65,94,109)" stroke-width="1" opacity="1" d="M 331.5 412 L 352.5 412 L 355 413 L 356 415.5 L 356 428.5 L 355 431 L 352.5 432 L 331.5 432 L 329 431 L 328 428.5 L 328 415.5 L 329 413 L 331.5 412 Z " /><path fill="rgb(102,50,16)" stroke="rgb(102,50,16)" stroke-width="1" opacity="1" d="M 158.5 100 L 349.5 100 Q 366 103.5 374 115.5 L 380 130.5 L 380 479.5 Q 377.4 493.9 368.5 502 L 366 503.5 L 403.5 504 L 407 506.5 Q 407.8 510.3 405.5 511 L 403.5 512 L 104.5 512 L 101 509.5 Q 100.3 505.8 102.5 505 L 104.5 504 L 142 503.5 L 138 500.5 L 131 489.5 L 128 476.5 L 128 130.5 Q 131.5 114 143.5 106 L 158.5 100 Z M 159 108 L 149 112 Q 139 118 136 131 L 136 481 L 141 493 Q 147 502 160 504 L 349 504 L 361 499 Q 370 493 372 481 L 372 131 L 368 121 Q 362 111 350 108 L 159 108 Z " /><path fill="rgb(102,50,16)" stroke="rgb(102,50,16)" stroke-width="1" opacity="1" d="M 176.5 132 L 287.5 132 Q 300.7 134.3 307 143.5 L 312 156.5 L 312 351.5 Q 309.7 364.7 300.5 371 L 287.5 376 L 176.5 376 Q 163.3 373.7 157 364.5 L 152 351.5 L 152 156.5 Q 154.3 143.3 163.5 137 L 176.5 132 Z M 176 140 L 169 143 Q 162 147 160 156 L 160 353 L 163 360 Q 167 366 176 368 L 289 368 L 296 365 Q 302 361 304 353 L 304 156 L 301 149 Q 297 142 289 140 L 176 140 Z " /><path fill="rgb(102,50,16)" stroke="rgb(102,50,16)" stroke-width="1" opacity="1" d="M 326.5 140 L 345.5 140 L 348 142.5 Q 348.8 147.3 345.5 148 L 326.5 148 L 324 145.5 Q 323.3 140.8 326.5 140 Z " /><path fill="rgb(102,50,16)" stroke="rgb(102,50,16)" stroke-width="1" opacity="1" d="M 326.5 156 L 337.5 156 L 340 158.5 Q 340.8 163.3 337.5 164 L 326.5 164 L 324 161.5 Q 323.3 156.8 326.5 156 Z " /><path fill="rgb(102,50,16)" stroke="rgb(102,50,16)" stroke-width="1" opacity="1" d="M 329.5 184 L 354.5 184 Q 360.6 185.4 363 190.5 L 364 193.5 L 364 218.5 Q 362.6 224.6 357.5 227 L 354.5 228 L 329.5 228 Q 323.4 226.6 321 221.5 L 320 218.5 L 320 193.5 Q 321.4 187.4 326.5 185 L 329.5 184 Z M 331 192 L 328 195 L 328 218 L 331 220 L 354 220 L 356 218 L 356 195 L 354 192 L 331 192 Z " /><path fill="rgb(102,50,16)" stroke="rgb(102,50,16)" stroke-width="1" opacity="1" d="M 335.5 204 L 348.5 204 L 351 205 L 352 208.5 L 351 211 L 348.5 212 L 335.5 212 L 333 211 L 332 207.5 L 333 205 L 335.5 204 Z " /><path fill="rgb(102,50,16)" stroke="rgb(102,50,16)" stroke-width="1" opacity="1" d="M 329.5 236 L 354.5 236 Q 360.6 237.4 363 242.5 L 364 245.5 L 364 298.5 Q 362.6 304.6 357.5 307 L 354.5 308 L 329.5 308 Q 323.4 306.6 321 301.5 L 320 298.5 L 320 245.5 Q 321.4 239.4 326.5 237 L 329.5 236 Z M 331 244 Q 326 246 328 252 L 349 252 L 351 253 L 352 256 L 351 259 L 341 261 L 343 261 L 344 268 L 351 269 L 352 272 L 351 275 L 349 276 L 344 276 L 344 284 L 351 285 L 352 288 L 351 291 L 344 292 L 344 300 L 354 300 L 356 298 L 356 247 L 354 244 L 331 244 Z M 328 260 L 328 268 L 336 268 L 337 261 L 339 261 L 328 260 Z M 328 276 L 328 284 L 336 284 L 336 276 L 328 276 Z M 328 292 L 328 298 Q 330 302 336 300 L 336 292 L 328 292 Z " /><path fill="rgb(102,50,16)" stroke="rgb(102,50,16)" stroke-width="1" opacity="1" d="M 338.5 320 Q 343.3 319.3 344 322.5 L 344 357.5 L 341.5 360 Q 336.8 360.8 336 357.5 L 336 322.5 L 338.5 320 Z " /><path fill="rgb(102,50,16)" stroke="rgb(102,50,16)" stroke-width="1" opacity="1" d="M 168.5 396 L 295.5 396 Q 303.8 397.7 308 403.5 L 312 412.5 L 312 431.5 Q 310.2 439.7 304.5 444 L 295.5 448 L 168.5 448 Q 160.2 446.3 156 440.5 L 152 431.5 L 152 412.5 Q 153.7 404.2 159.5 400 L 168.5 396 Z M 169 404 L 165 406 L 160 413 L 160 431 L 163 437 L 170 440 L 295 440 L 301 437 L 304 431 L 304 413 L 302 409 L 296 404 L 169 404 Z " /><path fill="rgb(102,50,16)" stroke="rgb(102,50,16)" stroke-width="1" opacity="1" d="M 329.5 404 L 354.5 404 Q 360.6 405.4 363 410.5 L 364 413.5 L 364 430.5 Q 362.6 436.6 357.5 439 L 354.5 440 L 329.5 440 Q 323.4 438.6 321 433.5 L 320 430.5 L 320 413.5 Q 321.4 407.4 326.5 405 L 329.5 404 Z M 331 412 L 328 415 L 328 430 L 331 432 L 354 432 L 356 430 L 356 415 L 354 412 L 331 412 Z " /></svg>